<svg id="ucr-logo" xmlns="http://www.w3.org/2000/svg" width="282" height="90" viewBox="0 0 282 90"><title>UC Riverside University Extension — Professional Studies</title><polygon fill="#ffb71b" points="15.45 90 83.66 60.91 83.66 58.82 15.45 74.3 15.45 90"/><path fill="#fff" d="M64.68,23.69h-3V34.57h3c1.89,0,3.18-.7,3.18-3.18V26.87C67.86,24.39,66.57,23.69,64.68,23.69Z"/><path fill="#fff" d="M0,12.28V77.81l83.66-19V0ZM27.17,46.44c0,5.36-3.38,7.35-8.64,7.35h-.2c-5.26,0-8.64-1.94-8.64-7.35V18.62h5.76V45.54c0,2.49,1.09,3.18,3,3.18s3-.69,3-3.18V18.62h5.76Zm23.06-14.5H44.47V26.47c0-2.43-1.19-3.18-3-3.18s-3,.75-3,3.18V45.54c0,2.44,1.2,3.18,3,3.18s3-.74,3-3.18v-6.3h5.76v7.2c0,5.36-3.47,7.35-8.74,7.35h-.1c-5.26,0-8.74-1.94-8.74-7.35V25.58c0-5.17,3.48-7.35,8.74-7.35h.1c5.27,0,8.74,2.18,8.74,7.35ZM69,53.39,64.53,39.53H61.65V53.39H55.89V18.62h9c5.26,0,8.74,2.09,8.74,7.36v6.2c0,3.33-1.39,5.42-3.78,6.46l5,14.75Z"/><path fill="#fff" d="M109.27,27.78a5.25,5.25,0,0,1-.58,2.46,4.16,4.16,0,0,1-1.75,1.7,5.94,5.94,0,0,1-2.85.62,5.24,5.24,0,0,1-3.84-1.3,4.68,4.68,0,0,1-1.31-3.48v-9h3.13v8.84a3.17,3.17,0,0,0,.48,1.93,1.83,1.83,0,0,0,1.54.63,1.86,1.86,0,0,0,1.56-.63,3.16,3.16,0,0,0,.49-1.93V18.8h3.13Z"/><path fill="#fff" d="M119.89,22.43a3.27,3.27,0,0,1,.74,2.28v7.52h-3v-7a1.79,1.79,0,0,0-.24-1.08.85.85,0,0,0-.71-.3c-.61,0-1.2.45-1.76,1.34v7h-3V21.94h2.64l.21,1.22a4.68,4.68,0,0,1,1.4-1.16,3.66,3.66,0,0,1,1.69-.39A2.69,2.69,0,0,1,119.89,22.43Z"/><path fill="#fff" d="M126.06,17a1.79,1.79,0,0,1,0,2.5,1.9,1.9,0,0,1-2.57,0,1.84,1.84,0,0,1,0-2.5,1.93,1.93,0,0,1,2.57,0Zm.24,4.93V32.23h-3V21.94Z"/><path fill="#fff" d="M137.78,21.94l-3.19,10.29H131l-3.27-10.29H131l1.79,8,1.87-8Z"/><path fill="#fff" d="M147.86,28h-6.28a2.8,2.8,0,0,0,.73,1.82,2.25,2.25,0,0,0,1.58.52,3.17,3.17,0,0,0,1.18-.22,6.11,6.11,0,0,0,1.25-.69l1.24,1.71a6.18,6.18,0,0,1-4,1.43,4.82,4.82,0,0,1-3.78-1.47,5.69,5.69,0,0,1-1.31-3.95,6.86,6.86,0,0,1,.55-2.82,4.59,4.59,0,0,1,1.62-2,4.5,4.5,0,0,1,2.56-.73,4.37,4.37,0,0,1,3.44,1.4,5.61,5.61,0,0,1,1.24,3.87A8.83,8.83,0,0,1,147.86,28ZM145,26c0-1.57-.57-2.36-1.64-2.36a1.4,1.4,0,0,0-1.21.58,3.7,3.7,0,0,0-.53,1.92H145Z"/><path fill="#fff" d="M156.51,21.79l-.47,3a4.24,4.24,0,0,0-.92-.13,1.61,1.61,0,0,0-1.37.63,5,5,0,0,0-.73,1.89v5.09h-3V21.94h2.64l.25,2a3.57,3.57,0,0,1,1-1.68,2.35,2.35,0,0,1,1.57-.61A3.52,3.52,0,0,1,156.51,21.79Z"/><path fill="#fff" d="M163.43,21.94a5.5,5.5,0,0,1,1.68.93L164,24.6a4.61,4.61,0,0,0-2.5-.8,1.63,1.63,0,0,0-.91.21.63.63,0,0,0-.31.57.71.71,0,0,0,.14.47,1.44,1.44,0,0,0,.58.38,11.73,11.73,0,0,0,1.36.47,5.72,5.72,0,0,1,2.36,1.21,2.75,2.75,0,0,1,.77,2.06A2.89,2.89,0,0,1,164.9,31a3.85,3.85,0,0,1-1.63,1.18,6.18,6.18,0,0,1-2.29.4,6.87,6.87,0,0,1-2.38-.4A5.59,5.59,0,0,1,156.74,31l1.47-1.66a4.31,4.31,0,0,0,2.7,1,2,2,0,0,0,1.07-.25.8.8,0,0,0,.4-.72,1,1,0,0,0-.16-.58,1.36,1.36,0,0,0-.59-.39,11.69,11.69,0,0,0-1.39-.46A5,5,0,0,1,158,26.73a2.81,2.81,0,0,1-.74-2,2.76,2.76,0,0,1,.5-1.6A3.5,3.5,0,0,1,159.2,22a5.33,5.33,0,0,1,2.18-.42A6.25,6.25,0,0,1,163.43,21.94Z"/><path fill="#fff" d="M170.2,17a1.81,1.81,0,0,1,0,2.5,1.78,1.78,0,0,1-1.29.5,1.74,1.74,0,0,1-1.28-.5,1.81,1.81,0,0,1,0-2.5,1.73,1.73,0,0,1,1.28-.49A1.77,1.77,0,0,1,170.2,17Zm.24,4.93V32.23h-3V21.94Z"/><path fill="#fff" d="M179.54,31.75a4.2,4.2,0,0,1-1.28.6,5.38,5.38,0,0,1-1.47.21q-3.31,0-3.32-3.72V24.07H172V21.94h1.43V19.71l3-.34v2.57h2.33l-.33,2.13h-2V28.8a1.72,1.72,0,0,0,.23,1,.82.82,0,0,0,.72.31,2.17,2.17,0,0,0,1.09-.33Z"/><path fill="#fff" d="M186.44,32.25a5.91,5.91,0,0,1-2,3.07,6.58,6.58,0,0,1-3.71,1.22l-.33-2.16a5.06,5.06,0,0,0,2.15-.65,3.13,3.13,0,0,0,1.12-1.5h-1l-3.1-10.29h3.21l1.82,8.34,2-8.34h3.12Z"/><path fill="#fff" d="M204.2,18.8l-.33,2.27h-4.66v3.22h4.07v2.23h-4.07V30h5v2.28h-8.12V18.8Z"/><path fill="#fff" d="M212,26.73l3.27,5.5h-3.42l-1.76-3.85-1.72,3.85h-3.28l3.26-5.4-2.94-4.89h3.38l1.42,3.3,1.35-3.3h3.21Z"/><path fill="#fff" d="M223,31.75a4.26,4.26,0,0,1-1.29.6,5.31,5.31,0,0,1-1.46.21q-3.32,0-3.32-3.72V24.07h-1.43V21.94h1.43V19.71l3-.34v2.57h2.33l-.33,2.13h-2V28.8a1.81,1.81,0,0,0,.22,1,.85.85,0,0,0,.73.31,2.2,2.2,0,0,0,1.09-.33Z"/><path fill="#fff" d="M232.81,28h-6.29a2.86,2.86,0,0,0,.73,1.82,2.25,2.25,0,0,0,1.58.52,3.22,3.22,0,0,0,1.19-.22,6.33,6.33,0,0,0,1.24-.69l1.24,1.71a6.15,6.15,0,0,1-3.95,1.43,4.79,4.79,0,0,1-3.78-1.47,5.7,5.7,0,0,1-1.32-3.95,6.86,6.86,0,0,1,.55-2.82,4.54,4.54,0,0,1,1.63-2,4.45,4.45,0,0,1,2.55-.73,4.37,4.37,0,0,1,3.44,1.4,5.61,5.61,0,0,1,1.24,3.87C232.86,27.31,232.84,27.68,232.81,28Zm-2.91-2c0-1.57-.57-2.36-1.64-2.36a1.4,1.4,0,0,0-1.21.58,3.8,3.8,0,0,0-.53,1.92h3.38Z"/><path fill="#fff" d="M243,22.43a3.27,3.27,0,0,1,.74,2.28v7.52h-3v-7a1.79,1.79,0,0,0-.24-1.08.83.83,0,0,0-.71-.3c-.61,0-1.2.45-1.76,1.34v7h-3V21.94h2.64l.21,1.22a4.68,4.68,0,0,1,1.4-1.16,3.66,3.66,0,0,1,1.69-.39A2.69,2.69,0,0,1,243,22.43Z"/><path fill="#fff" d="M252,21.94a5.27,5.27,0,0,1,1.68.93l-1.11,1.73a4.58,4.58,0,0,0-2.5-.8,1.66,1.66,0,0,0-.91.21.63.63,0,0,0-.31.57.77.77,0,0,0,.14.47,1.51,1.51,0,0,0,.58.38,12.46,12.46,0,0,0,1.36.47,5.65,5.65,0,0,1,2.36,1.21,2.75,2.75,0,0,1,.77,2.06,2.89,2.89,0,0,1-.59,1.81,3.82,3.82,0,0,1-1.62,1.18,6.22,6.22,0,0,1-2.29.4,6.8,6.8,0,0,1-2.38-.4A5.59,5.59,0,0,1,245.28,31l1.47-1.66a4.28,4.28,0,0,0,2.69,1,2,2,0,0,0,1.08-.25.81.81,0,0,0,.39-.72,1,1,0,0,0-.15-.58,1.41,1.41,0,0,0-.6-.39,11.08,11.08,0,0,0-1.39-.46,5,5,0,0,1-2.25-1.24,2.77,2.77,0,0,1-.75-2,2.7,2.7,0,0,1,.51-1.6A3.47,3.47,0,0,1,247.73,22a5.35,5.35,0,0,1,2.19-.42A6.23,6.23,0,0,1,252,21.94Z"/><path fill="#fff" d="M258.73,17a1.79,1.79,0,0,1,0,2.5,1.78,1.78,0,0,1-1.29.5,1.74,1.74,0,0,1-1.28-.5,1.81,1.81,0,0,1,0-2.5,1.73,1.73,0,0,1,1.28-.49A1.77,1.77,0,0,1,258.73,17Zm.24,4.93V32.23h-3V21.94Z"/><path fill="#fff" d="M269.76,23.06a5.77,5.77,0,0,1,1.32,4,6.36,6.36,0,0,1-.61,2.88,4.45,4.45,0,0,1-1.71,1.9,5,5,0,0,1-2.65.68,4.72,4.72,0,0,1-3.64-1.44,5.77,5.77,0,0,1-1.32-4,6.5,6.5,0,0,1,.6-2.88,4.43,4.43,0,0,1,1.72-1.91,5,5,0,0,1,2.64-.68A4.71,4.71,0,0,1,269.76,23.06Zm-5,1.59a4.9,4.9,0,0,0-.46,2.43,5.12,5.12,0,0,0,.45,2.46,1.48,1.48,0,0,0,1.38.77,1.51,1.51,0,0,0,1.38-.78,5,5,0,0,0,.45-2.43,5.2,5.2,0,0,0-.44-2.46,1.5,1.5,0,0,0-1.39-.78A1.47,1.47,0,0,0,264.74,24.65Z"/><path fill="#fff" d="M281.26,22.43a3.27,3.27,0,0,1,.74,2.28v7.52h-3v-7a1.79,1.79,0,0,0-.24-1.08.85.85,0,0,0-.71-.3c-.61,0-1.2.45-1.76,1.34v7h-3V21.94h2.64l.21,1.22A4.68,4.68,0,0,1,277.5,22a3.66,3.66,0,0,1,1.69-.39A2.69,2.69,0,0,1,281.26,22.43Z"/><path fill="#fff" d="M106.4,40.72a3.66,3.66,0,0,1,1.33,3.09,3.84,3.84,0,0,1-1.39,3.26,6,6,0,0,1-3.71,1.06H101V53H99.16V39.68h3.45A6.1,6.1,0,0,1,106.4,40.72ZM105,46.06a2.6,2.6,0,0,0,.83-2.23,2.42,2.42,0,0,0-.83-2.07,3.79,3.79,0,0,0-2.38-.64H101v5.56h1.59A4,4,0,0,0,105,46.06Z"/><path fill="#fff" d="M115.62,42.71l-.33,1.74a3.37,3.37,0,0,0-.87-.12,1.86,1.86,0,0,0-1.51.7,5.34,5.34,0,0,0-.9,2.17V53h-1.76V42.82h1.51l.17,2.08A3.88,3.88,0,0,1,113,43.17a2.4,2.4,0,0,1,1.61-.58A4,4,0,0,1,115.62,42.71Z"/><path fill="#fff" d="M124.6,44a6,6,0,0,1,1.18,3.9,6.82,6.82,0,0,1-.54,2.8,4.08,4.08,0,0,1-3.95,2.55,4,4,0,0,1-3.3-1.44,5.91,5.91,0,0,1-1.19-3.89,6.82,6.82,0,0,1,.54-2.8,4.17,4.17,0,0,1,1.54-1.88,4.3,4.3,0,0,1,2.43-.67A4,4,0,0,1,124.6,44Zm-5.91,3.92c0,2.6.87,3.89,2.6,3.89s2.6-1.3,2.6-3.91S123,44,121.31,44,118.69,45.33,118.69,47.94Z"/><path fill="#fff" d="M131.43,40.29a1.56,1.56,0,0,0-.34,1.12v1.41h2.44l-.19,1.38h-2.25V53h-1.76V44.2h-1.79V42.82h1.79V41.43a2.82,2.82,0,0,1,.83-2.12,3.2,3.2,0,0,1,2.32-.81,5.1,5.1,0,0,1,1.23.13,5.87,5.87,0,0,1,1.18.4l-.56,1.29a4.15,4.15,0,0,0-1.75-.38A1.58,1.58,0,0,0,131.43,40.29Z"/><path fill="#fff" d="M143.41,48.54H137a4.07,4.07,0,0,0,.84,2.48,2.41,2.41,0,0,0,1.87.79A4.14,4.14,0,0,0,141,51.6a5.53,5.53,0,0,0,1.28-.68l.76,1.07a5.53,5.53,0,0,1-3.51,1.28,4.06,4.06,0,0,1-3.28-1.4A5.78,5.78,0,0,1,135.12,48a7.51,7.51,0,0,1,.5-2.82,4.41,4.41,0,0,1,1.45-1.93,3.64,3.64,0,0,1,2.23-.7,3.7,3.7,0,0,1,3.07,1.34,5.72,5.72,0,0,1,1.07,3.7C143.44,47.93,143.43,48.23,143.41,48.54Zm-1.7-1.43a3.79,3.79,0,0,0-.6-2.31,2.05,2.05,0,0,0-1.77-.79c-1.44,0-2.22,1.07-2.35,3.21h4.72Z"/><path fill="#fff" d="M151.31,42.88a5.94,5.94,0,0,1,1.57.87l-.75,1.13a5.75,5.75,0,0,0-1.31-.66,4,4,0,0,0-1.3-.21,2.27,2.27,0,0,0-1.36.35,1.16,1.16,0,0,0-.5,1,1.14,1.14,0,0,0,.47,1,5.48,5.48,0,0,0,1.69.68,5.93,5.93,0,0,1,2.51,1.16,2.53,2.53,0,0,1,.83,2,2.61,2.61,0,0,1-1.15,2.3,4.86,4.86,0,0,1-2.82.8,5.53,5.53,0,0,1-3.8-1.34l.94-1.08a4.54,4.54,0,0,0,2.82,1,2.64,2.64,0,0,0,1.58-.41,1.33,1.33,0,0,0,.58-1.14,1.52,1.52,0,0,0-.21-.84,1.72,1.72,0,0,0-.72-.56,10.36,10.36,0,0,0-1.51-.51,5.11,5.11,0,0,1-2.32-1.15,2.46,2.46,0,0,1-.72-1.82A2.41,2.41,0,0,1,146.3,44a3,3,0,0,1,1.3-1,4.61,4.61,0,0,1,1.86-.36A5.61,5.61,0,0,1,151.31,42.88Z"/><path fill="#fff" d="M160.52,42.88a5.89,5.89,0,0,1,1.56.87l-.74,1.13a6,6,0,0,0-1.31-.66,4,4,0,0,0-1.31-.21,2.25,2.25,0,0,0-1.35.35,1.13,1.13,0,0,0-.5,1,1.11,1.11,0,0,0,.47,1A5.37,5.37,0,0,0,159,47a6,6,0,0,1,2.51,1.16,2.57,2.57,0,0,1,.83,2,2.62,2.62,0,0,1-1.16,2.3,4.85,4.85,0,0,1-2.81.8,5.51,5.51,0,0,1-3.8-1.34l.93-1.08a4.57,4.57,0,0,0,2.83,1,2.61,2.61,0,0,0,1.57-.41,1.34,1.34,0,0,0,.59-1.14,1.52,1.52,0,0,0-.21-.84,1.76,1.76,0,0,0-.73-.56,10,10,0,0,0-1.51-.51,5.17,5.17,0,0,1-2.32-1.15A2.45,2.45,0,0,1,155,45.4,2.4,2.4,0,0,1,155.5,44a3.07,3.07,0,0,1,1.3-1,4.67,4.67,0,0,1,1.86-.36A5.67,5.67,0,0,1,160.52,42.88Z"/><path fill="#fff" d="M167.09,38.27a1.22,1.22,0,0,1,.34.87,1.18,1.18,0,0,1-.34.86,1.21,1.21,0,0,1-.9.34,1.18,1.18,0,0,1-.88-.34,1.14,1.14,0,0,1-.34-.86,1.18,1.18,0,0,1,.34-.87,1.19,1.19,0,0,1,.88-.35A1.22,1.22,0,0,1,167.09,38.27Zm0,4.55V53h-1.76V42.82Z"/><path fill="#fff" d="M178.27,44a6,6,0,0,1,1.17,3.9,7,7,0,0,1-.53,2.8,4.31,4.31,0,0,1-1.55,1.88,4.23,4.23,0,0,1-2.41.67,4,4,0,0,1-3.3-1.44,5.91,5.91,0,0,1-1.18-3.89,6.82,6.82,0,0,1,.53-2.8,4.19,4.19,0,0,1,1.55-1.88,4.24,4.24,0,0,1,2.42-.67A4,4,0,0,1,178.27,44Zm-5.91,3.92c0,2.6.86,3.89,2.59,3.89s2.6-1.3,2.6-3.91S176.69,44,175,44,172.36,45.33,172.36,47.94Z"/><path fill="#fff" d="M189.71,43.42a3.27,3.27,0,0,1,.77,2.29V53h-1.76V46a2.28,2.28,0,0,0-.4-1.53,1.5,1.5,0,0,0-1.18-.44,2.28,2.28,0,0,0-1.42.46,5,5,0,0,0-1.14,1.34V53h-1.76V42.82h1.51l.15,1.51a4,4,0,0,1,1.33-1.27,3.4,3.4,0,0,1,1.75-.47A2.82,2.82,0,0,1,189.71,43.42Z"/><path fill="#fff" d="M201.48,51.57a1.33,1.33,0,0,0,.63.46l-.4,1.24a2.65,2.65,0,0,1-1.26-.45,2,2,0,0,1-.71-1.08,3.35,3.35,0,0,1-3,1.53,3.24,3.24,0,0,1-2.35-.85,3,3,0,0,1-.85-2.23,2.93,2.93,0,0,1,1.15-2.5,5.36,5.36,0,0,1,3.28-.87h1.54v-.76a2,2,0,0,0-.51-1.55,2.32,2.32,0,0,0-1.59-.47,8.83,8.83,0,0,0-2.71.55l-.44-1.3a9.92,9.92,0,0,1,3.48-.7,3.58,3.58,0,0,1,2.65.88,3.4,3.4,0,0,1,.88,2.51v4.67A1.6,1.6,0,0,0,201.48,51.57Zm-2-1.23V48H198.2c-1.86,0-2.79.69-2.79,2.09a1.91,1.91,0,0,0,.44,1.38,1.68,1.68,0,0,0,1.29.46A2.62,2.62,0,0,0,199.51,50.34Z"/><path fill="#fff" d="M205.63,52.68a2.35,2.35,0,0,1-.56-1.66V38.71l1.76-.21V51a1,1,0,0,0,.14.62.58.58,0,0,0,.49.2,1.67,1.67,0,0,0,.65-.12l.46,1.24a2.91,2.91,0,0,1-1.4.35A2,2,0,0,1,205.63,52.68Z"/><path fill="#fff" d="M222.37,39.83A6.11,6.11,0,0,1,224.19,41l-1,1.13a5.62,5.62,0,0,0-1.46-.89A4.29,4.29,0,0,0,220.2,41a2.76,2.76,0,0,0-1.7.49,1.62,1.62,0,0,0-.67,1.41,1.85,1.85,0,0,0,.23,1,2,2,0,0,0,.85.73,10.37,10.37,0,0,0,1.8.69,11.2,11.2,0,0,1,2.06.84,3.65,3.65,0,0,1,1.33,1.23,3.55,3.55,0,0,1,.51,2,3.66,3.66,0,0,1-2.19,3.45,5.74,5.74,0,0,1-2.51.51,6.08,6.08,0,0,1-4.47-1.73l1-1.12a6.64,6.64,0,0,0,1.63,1,4.81,4.81,0,0,0,1.83.34,3.28,3.28,0,0,0,2-.61,2.09,2.09,0,0,0,.81-1.78,2.22,2.22,0,0,0-.25-1.09,2.34,2.34,0,0,0-.85-.79,8.8,8.8,0,0,0-1.75-.69,7.72,7.72,0,0,1-3-1.5,3.09,3.09,0,0,1-.94-2.36,3.2,3.2,0,0,1,.53-1.8A3.45,3.45,0,0,1,218,39.9a5,5,0,0,1,2.15-.45A6,6,0,0,1,222.37,39.83Z"/><path fill="#fff" d="M232.74,52.57a3.78,3.78,0,0,1-2.25.7,2.65,2.65,0,0,1-2-.75,3,3,0,0,1-.71-2.16V44.2H226V42.82h1.76v-2.3l1.75-.22v2.52h2.39l-.19,1.38h-2.2v6.08a2,2,0,0,0,.28,1.16,1.1,1.1,0,0,0,.93.36,2.84,2.84,0,0,0,1.33-.41Z"/><path fill="#fff" d="M242.52,53H241l-.13-1.59a3.82,3.82,0,0,1-1.32,1.38,3.54,3.54,0,0,1-1.81.44,2.65,2.65,0,0,1-2.07-.82,3.31,3.31,0,0,1-.74-2.3V42.82h1.76V50a2.38,2.38,0,0,0,.36,1.49,1.44,1.44,0,0,0,1.18.43,3,3,0,0,0,2.52-1.76V42.82h1.76Z"/><path fill="#fff" d="M254.42,38.71V53h-1.55l-.17-1.42a3.67,3.67,0,0,1-1.24,1.21,3.41,3.41,0,0,1-4.46-1A6.58,6.58,0,0,1,246,48a7.56,7.56,0,0,1,.47-2.79,4.3,4.3,0,0,1,1.38-1.91,3.35,3.35,0,0,1,2.1-.69,3.59,3.59,0,0,1,2.71,1.26V38.5Zm-2.87,12.77a4.48,4.48,0,0,0,1.11-1.14v-5a3.81,3.81,0,0,0-1.06-1,2.48,2.48,0,0,0-1.27-.33,2,2,0,0,0-1.8,1,5.45,5.45,0,0,0-.64,2.95,5.68,5.68,0,0,0,.59,2.94,1.87,1.87,0,0,0,1.7,1A2.44,2.44,0,0,0,251.55,51.48Z"/><path fill="#fff" d="M260.28,38.27a1.18,1.18,0,0,1,.34.87,1.14,1.14,0,0,1-.34.86,1.21,1.21,0,0,1-.9.34,1.2,1.2,0,0,1-.88-.34,1.14,1.14,0,0,1-.34-.86,1.18,1.18,0,0,1,.34-.87,1.21,1.21,0,0,1,.88-.35A1.22,1.22,0,0,1,260.28,38.27Zm0,4.55V53h-1.76V42.82Z"/><path fill="#fff" d="M272,48.54h-6.42a4.07,4.07,0,0,0,.84,2.48,2.43,2.43,0,0,0,1.87.79,4.09,4.09,0,0,0,1.34-.21,5.34,5.34,0,0,0,1.28-.68l.76,1.07a5.53,5.53,0,0,1-3.51,1.28,4.07,4.07,0,0,1-3.28-1.4A5.78,5.78,0,0,1,263.66,48a7.31,7.31,0,0,1,.51-2.82,4.34,4.34,0,0,1,1.45-1.93,3.61,3.61,0,0,1,2.22-.7,3.73,3.73,0,0,1,3.08,1.34,5.78,5.78,0,0,1,1.07,3.7C272,47.93,272,48.23,272,48.54Zm-1.7-1.43a3.86,3.86,0,0,0-.59-2.31,2.08,2.08,0,0,0-1.78-.79c-1.44,0-2.22,1.07-2.35,3.21h4.72Z"/><path fill="#fff" d="M279.85,42.88a5.94,5.94,0,0,1,1.57.87l-.74,1.13a6,6,0,0,0-1.31-.66,4.09,4.09,0,0,0-1.31-.21,2.29,2.29,0,0,0-1.36.35,1.15,1.15,0,0,0-.49,1,1.13,1.13,0,0,0,.46,1,5.6,5.6,0,0,0,1.69.68,6,6,0,0,1,2.52,1.16,2.57,2.57,0,0,1,.83,2,2.62,2.62,0,0,1-1.16,2.3,4.86,4.86,0,0,1-2.82.8,5.55,5.55,0,0,1-3.8-1.34l.94-1.08a4.57,4.57,0,0,0,2.83,1,2.63,2.63,0,0,0,1.57-.41,1.33,1.33,0,0,0,.58-1.14,1.52,1.52,0,0,0-.21-.84,1.72,1.72,0,0,0-.72-.56,10.36,10.36,0,0,0-1.51-.51,5.17,5.17,0,0,1-2.32-1.15,2.46,2.46,0,0,1-.72-1.82,2.41,2.41,0,0,1,.47-1.44,3,3,0,0,1,1.3-1,4.61,4.61,0,0,1,1.86-.36A5.57,5.57,0,0,1,279.85,42.88Z"/></svg>